name processed_emg_signals
nRows=90
nColumns=7
 
endheader
time	RGLTMED	RRF	RADDLONG	RST	RTA	RGM
1.8820000000000001	0.4100330304028258	0.2892740772036807	0.6375578516071363	0.0559328217176581	0.49102135592712	0.1703411588834046
1.883	0.4106811467049927	0.29038292909071	0.6384347720609902	0.0559863414072589	0.4916211735333057	0.1715933155715656
1.8840000000000001	0.4112978211520848	0.2915048289868058	0.6393208901813477	0.0560637463090207	0.4924003017993292	0.1728559642954339
1.885	0.4118839592201423	0.2926403004418486	0.6402144847968894	0.0561639536927998	0.493359433867389	0.174127753778734
1.8860000000000001	0.4124404817738582	0.293789841790591	0.6411138141123418	0.0562858908789387	0.4944990255942036	0.175407322532158
1.887	0.4129683222334856	0.2949539241979191	0.6420171188095695	0.0564284962582266	0.4958192976236591	0.1766933004089093
1.8880000000000001	0.4134684238040924	0.2961329897034971	0.6429226251365178	0.056590720266389	0.4973202377758478	0.1779843101685935
1.889	0.4139417367743397	0.2973274492771208	0.6438285479789213	0.0567715263129125	0.4990016037387644	0.1792789690498113
1.8900000000000001	0.4143892158914809	0.2985376808955713	0.6447330939090619	0.0569698916641729	0.5008629260488684	0.180575890351839
1.891	0.4148118178190188	0.2997640276518569	0.6456344642062363	0.0571848082807762	0.5029035113472732	0.1818736850258188
1.8920000000000001	0.4152104986819753	0.3010067959068401	0.646530857843545	0.0574152836090322	0.5051224458988373	0.1831709632758156
1.893	0.4155862117049343	0.3022662534927889	0.6474204744375252	0.0576603413263607	0.5075185993621892	0.184466336169898
1.8940000000000001	0.4159399049459671	0.3035426279774796	0.6483015171578426	0.057919022040311	0.5100906287991162	0.1857584172610285
1.895	0.4162725191294615	0.30483610499691	0.6491721955962043	0.0581903839408144	0.5128369829119003	0.1870458242171497
1.8960000000000001	0.4165849855795173	0.3061468266635787	0.6500307285931685	0.0584735034052848	0.5157559064968446	0.188327180459577
1.897	0.416878224254978	0.3074748900566408	0.6508753470212435	0.0587674755561392	0.5188454451019913	0.1896011168084212
1.8980000000000001	0.4171531418860527	0.3088203457995707	0.6517042965218863	0.0590714147703584	0.5221034498762229	0.1908662731335449
1.899	0.4174106302120202	0.3101831967299702	0.6525158401923074	0.059384455140727	0.5255275825960303	0.1921213000093015
1.9000000000000001	0.4176515643189706	0.3115633966658518	0.6533082612176799	0.0597057508885804	0.529115320855035	0.19336486037111
1.901	0.4178768010769549	0.3129608492716234	0.6540798654422524	0.0600344767279025	0.5328639634005915	0.1945956311718278
1.9020000000000001	0.4180871776756186	0.314375407026804	0.6548289838723054	0.0603698281809202	0.5367706356016533	0.1958123050356889
1.903	0.4182835102579073	0.3158068702996346	0.655553975103231	0.0607110218456126	0.540832295032496	0.1970135919074581
1.9040000000000001	0.4184665926516662	0.3172549865277321	0.6562532276628859	0.0610572956156922	0.5450457371579526	0.1981982206939619
1.905	0.4186371951987692	0.3187194495079771	0.6569251622654797	0.0614079088540133	0.5494076011069986	0.1993649408948214
1.9060000000000001	0.4187960636817335	0.3201998987973581	0.6575682339711564	0.0617621425204971	0.5539143755228546	0.2005125242187006
1.907	0.4189439183472127	0.3216959192268387	0.658180934248139	0.0621192992558103	0.5585624044791115	0.2016397661811136
1.9080000000000001	0.419081453025386	0.3232070405295107	0.6587617929354994	0.0624787034225189	0.5633478934529111	0.2027454876797398
1.909	0.4192093343432772	0.3247327370845046	0.6593093801039226	0.0628397011052892	0.5682669153478661	0.2038285365433769
1.9100000000000001	0.4193282010288864	0.3262724277774656	0.6598223078111585	0.0632016600721836	0.5733154165604791	0.2048877890508073
1.911	0.4194386633032329	0.3278254759782287	0.6602992317477697	0.0635639696989232	0.5784892230847294	0.2059221514161192
1.9120000000000001	0.4195413023568886	0.3293911896359367	0.6607388527675827	0.0639260408581304	0.5837840466508095	0.2069305612372054
1.913	0.4196366699085099	0.3309688214916426	0.6611399182983984	0.0642873057755459	0.5891954908960225	0.2079119889043167
1.9140000000000001	0.4197252878437918	0.3325575694085559	0.6615012236285415	0.064647217855282	0.5947190575681968	0.2088654389658996
1.915	0.4198076479335292	0.3341565768203724	0.6618216130683042	0.0650052514760091	0.6003501527639163	0.209789951448978
1.9160000000000001	0.4198842116301987	0.3357649332981282	0.6620999809861594	0.065360901760103	0.6060840932048127	0.2106846031314366
1.917	0.4199554099417568	0.3373816752364153	0.662335272722228	0.0657136843176055	0.6119161125554612	0.2115485087634989
1.9180000000000001	0.4200216433811413	0.3390057866596225	0.6625264853818817	0.066063134967011	0.6178413677859893	0.2123808222355074
1.919	0.4200832819891727	0.3406362001487024	0.6626726685125357	0.0664088094347169	0.623854945581737	0.21318073768923
1.92	0.420140665428184	0.3422717978888501	0.6627729246655925	0.0667502830351623	0.6299518688009813	0.2139474905700608
1.921	0.4201941031427073	0.3439114128379534	0.6628264098462471	0.067087150333303	0.6361271029800654	0.2146803586178559
1.922	0.4202438745830126	0.3455538300152073	0.6628323338530622	0.0674190247909795	0.6423755628831325	0.2153786627945532
1.923	0.4202902294869617	0.347197787909299	0.6627899605106451	0.0677455383986402	0.6486921190914317	0.2160417681474034
1.924	0.4203333882152754	0.3488419800051935	0.6626986077991734	0.0680663412934889	0.6550716046249796	0.2166690846071329
1.925	0.4203735421355052	0.3504850564287712	0.6625576478863617	0.0683811013652129	0.6615088215872401	0.2172600677209025
1.926	0.4204108540497516	0.3521256257081165	0.6623665070687704	0.0686895038502813	0.6679985478217272	0.2178142193202019
1.927	0.4204454586610675	0.3537622566502867	0.6621246656285933	0.0689912509157339	0.6745355435680745	0.2183310881239612
1.928	0.4204774630730846	0.3553934803311188	0.6618316576126809	0.069286061233593	0.6811145581042243	0.2188102702772905
1.929	0.4205069473169468	0.357017792195608	0.6614870705384406	0.0695736695468739	0.6877303363608446	0.2192514098261866
1.93	0.4205339648986903	0.3586336542652243	0.6610905450302926	0.0698538262284706	0.6943776254937283	0.2196541991285384
1.931	0.4205585433599525	0.3602394974484274	0.6606417743885695	0.0701262968339378	0.7010511813999103	0.2200183792016614
1.932	0.4205806848438704	0.3618337239498764	0.6601405040922962	0.0703908616493198	0.7077457751627719	0.2203437400066205
1.933	0.4206003666583303	0.3634147097740638	0.6595865312364014	0.0706473152349613	0.714456199410463	0.2206301206695376
1.934	0.4206175418287298	0.3649808073186997	0.6589797039048486	0.0708954659662132	0.7211772745704386	0.2208774096400899
1.935	0.4206321396341351	0.3665303480534078	0.6583199204824671	0.071135135572109	0.7279038550013569	0.2210855447874821
1.936	0.4206440661220663	0.3680616452789325	0.6576071289084671	0.0713661586729838	0.7346308349824365	0.2212545134339811
1.937	0.4206532045995853	0.3695729969620765	0.6568413258763037	0.0715883823183082	0.7413531545400751	0.2213843523259013
1.938	0.4206594160992071	0.3710626886413804	0.6560225559843655	0.0718016655259927	0.7480658050918472	0.2214751475416471
1.939	0.420662539819067	0.3725289963986787	0.6551509108419539	0.0720058788244005	0.754763834889136	0.2215270343358787
1.94	0.4206623935359962	0.3739701898920008	0.6542265281334377	0.0722009037983247	0.7614423542412084	0.2215401969186097
1.941	0.4206587739898792	0.3753845354454875	0.6532495906425678	0.0723866326399669	0.7680965405055447	0.2215148681677005
1.942	0.4206514572377413	0.3767702991926571	0.6522203252383689	0.0725629677059278	0.7747216428319194	0.2214513292730985
1.943	0.4206401989771788	0.3781257502689747	0.6511390018227823	0.0727298210811981	0.7813129866504178	0.2213499093110101
1.944	0.4206247348408562	0.3794491640493743	0.6500059322422926	0.0728871141510918	0.7878659778961206	0.2212109847460432
1.945	0.4206047806660293	0.3807388254256087	0.6488214691668466	0.0730347771821989	0.7943761069652984	0.2210349788593992
1.946	0.4205800327444544	0.3819930321172731	0.6475860049406035	0.0731727489134786	0.8008389524002437	0.2208223611012742
1.947	0.4205501680593055	0.3832100980097074	0.6462999704108308	0.0733009761584511	0.8072501843022976	0.2205736463659763
1.948	0.4205148445155165	0.3843883565112808	0.6449638337406052	0.0734194134194347	0.8136055674752249	0.2202893941886528
1.949	0.4204737011699912	0.3855261639218547	0.6435780992114534	0.0735280225147232	0.8199009643039173	0.2199702078628084
1.95	0.4204263584679911	0.3866219028037195	0.6421433060216488	0.0736267722193779	0.8261323373761799	0.2196167334779909
1.951	0.4203724184910327	0.3876739853456961	0.6406600270868903	0.0737156379205944	0.8322957518572379	0.2192296588772729
1.952	0.4203114652211017	0.3886808567106454	0.6391288678504945	0.0737946012881796	0.8383873776277886	0.2188097125341806
1.953	0.4202430648252156	0.3896409983565684	0.6375504651105031	0.0738636499608034	0.8444034911965971	0.2183576623493007
1.954	0.4201667659626717	0.3905529313209975	0.6359254858716259	0.0739227772484626	0.8503404773988538	0.2178743143674711
1.955	0.4200821001171833	0.391415219458048	0.6342546262295735	0.0739719818513765	0.8561948308918576	0.2173605114171753
1.956	0.4199885819551326	0.3922264726173295	0.6325386102948302	0.0740112675955551	0.8619631574604611	0.2168171316746005
1.957	0.4198857097114946	0.3929853497537153	0.6307781891623019	0.0740406431850977	0.8676421751455616	0.2162450871554266
1.958	0.4197729656053438	0.3936905619577009	0.6289741399318565	0.0740601219713256	0.8732287152094729	0.2156453221380943
1.959	0.4196498162874154	0.3943408753960676	0.6271272647842008	0.0740697217387438	0.8787197229522604	0.2150188115226735
1.96	0.4195157133223072	0.394935114153321	0.6252383901153987	0.0740694645079932	0.8841122583931766	0.2143665591298798
1.961	0.4193700937079245	0.3954721629642438	0.6233083657315706	0.0740593763559011	0.8894034968312314	0.2136895959449753
1.962	0.4192123804344673	0.3959509698279181	0.6213380641048659	0.0740394872527919	0.8945907292979556	0.2129889783113447
1.963	0.419041983084705	0.3963705484939264	0.6193283796888471	0.0740098309173811	0.89967136291378	0.2122657860782968
1.964	0.4188582984770823	0.3967299808113092	0.6172802282911484	0.0739704446893457	0.9046429211571496	0.2115211207075598
1.965	0.418660711352339	0.3970284189320751	0.6151945464997574	0.0739213694198802	0.9095030440533134	0.2107561033429638
1.966	0.4184485951039483	0.3972650873619209	0.613072291158402	0.073862649380389	0.9142494882878658	0.2099718728479925
1.967	0.4182213125517807	0.3974392848518307	0.6109144388852771	0.0737943321894093	0.9188801272496248	0.2091695838163957
1.968	0.417978216758345	0.3975503861258143	0.6087219856289521	0.0737164687579304	0.9233929510079316	0.2083504045613904
1.969	0.41771865188621	0.3975978434405415	0.6064959462539863	0.0736291132531201	0.9277860662311492	0.2075155150893416
1.97	0.4174419540946179	0.3975811879735509	0.6042373541485971	0.0735323230804518	0.9320576960550468	0.2066661050641927
1.971	0.417147452472968	0.3975000310367529	0.6019472608464136	0.0734261588838908	0.9362061799112208	0.2058033717692315
